<svg xmlns="http://www.w3.org/2000/svg" width="24" height="24" viewBox="0 0 24 24"><rect width="24" height="24" fill="#e50025" opacity="0"/><path d="M12,4.5c-4.418,0-8,2.889-8,6.454a6.3,6.3,0,0,0,3.8,5.491c-.167.637-.606,2.309-.693,2.667-.109.444.158.438.334.319.138-.094,2.192-1.52,3.079-2.135A9.9,9.9,0,0,0,12,17.408c4.418,0,8-2.89,8-6.454S16.418,4.5,12,4.5" fill="#291516"/><path d="M6.419,9.766h.823s.006,2.308,0,2.846c0,.392.857.4.856.006L8.1,9.8s.276,0,.82,0a.412.412,0,0,0,0-.822c-.577,0-2.5-.016-2.5-.016a.405.405,0,0,0,0,.806" fill="#ffd900"/><path d="M6.419,9.766h.823s.006,2.308,0,2.845c0,.393.857.4.855.007L8.1,9.8s.275,0,.819,0a.412.412,0,0,0,0-.822c-.577,0-2.505-.016-2.505-.016a.405.405,0,0,0,0,.806" fill="none"/><path d="M10.36,9.915l.459,1.465H9.864Zm-.513-.686c-.2.455-.934,2.606-1.177,3.176-.176.413.581.749.757.336l.165-.588H11.1s-.052.025.148.564c.162.435.944.133.782-.3C11.8,11.791,11,9.547,10.851,9.229a.616.616,0,0,0-.542-.252.475.475,0,0,0-.462.252" fill="#ffd900"/><path d="M10.36,9.915l.458,1.465H9.863Zm-.513-.686c-.2.456-.935,2.606-1.178,3.176-.176.413.582.748.758.336l.164-.588H11.1s-.051.025.148.564c.162.435.945.133.783-.3C11.8,11.791,11,9.547,10.851,9.229a.617.617,0,0,0-.542-.253.473.473,0,0,0-.462.253" fill="none"/><path d="M12.317,9.363c0,.731,0,3.086,0,3.086s-.066.468.327.468l1.654,0c.386,0,.384-.84,0-.84s-1.093,0-1.093,0,0-2.179,0-2.708a.45.45,0,0,0-.891,0" fill="#ffd900"/><path d="M12.317,9.363c0,.731,0,3.086,0,3.086s-.066.468.328.468l1.653,0c.387,0,.384-.841,0-.841s-1.092,0-1.092,0,0-2.178,0-2.708a.45.45,0,0,0-.891,0" fill="none"/><path d="M14.792,9.247c.009.32-.01,3.219-.01,3.433,0,.339.846.338.846,0,0-.394,0-1.141,0-1.141l.248-.2,1.085,1.512c.22.3.91-.238.691-.534L16.5,10.765s.783-.864,1.091-1.177c.18-.182-.377-.755-.557-.572l-1.4,1.429s.011-.787,0-1.221c-.005-.165-.2-.245-.406-.245s-.439.091-.435.268" fill="#ffd900"/><path d="M14.792,9.247c.009.321-.01,3.219-.01,3.434,0,.338.846.337.846,0,0-.394,0-1.14,0-1.14l.248-.2,1.085,1.512c.22.3.91-.238.691-.534L16.5,10.765s.783-.863,1.091-1.177c.18-.182-.378-.755-.557-.572s-1.4,1.429-1.4,1.429.011-.787,0-1.221c0-.165-.2-.245-.4-.245-.218,0-.44.092-.435.268" fill="none"/></svg>